<?xml version="1.0" encoding="UTF-8" standalone="no"?>
<svg width="65px" height="25px" viewBox="0 0 65 25" version="1.1" xmlns="http://www.w3.org/2000/svg" xmlns:xlink="http://www.w3.org/1999/xlink" xmlns:sketch="http://www.bohemiancoding.com/sketch/ns">
    <!-- Generator: Sketch 3.4.4 (17249) - http://www.bohemiancoding.com/sketch -->
    <title>Oval 1 + Oval 1 Copy</title>
    <desc>Created with Sketch.</desc>
    <defs></defs>
    <g id="Page-1" stroke="none" stroke-width="1" fill="none" fill-rule="evenodd" sketch:type="MSPage">
        <g id="Oval-1-+-Oval-1-Copy" sketch:type="MSLayerGroup" fill="#FFFFFF">
            <path d="M10.9405941,8.90338373 C13.9525139,10.0660109 16.0891089,12.9889368 16.0891089,16.4108911 C16.0891089,20.8537758 12.4874392,24.4554455 8.04455446,24.4554455 C3.60166971,24.4554455 0,20.8537758 0,16.4108911 C0,12.9889368 2.13659499,10.0660109 5.14851485,8.90338373 L5.14851485,0 L10.9405941,0 L10.9405941,8.90338373 Z" id="Oval-1" sketch:type="MSShapeGroup"></path>
            <path d="M59.8514851,8.90338373 C62.863405,10.0660109 65,12.9889368 65,16.4108911 C65,20.8537758 61.3983303,24.4554455 56.9554455,24.4554455 C52.5125608,24.4554455 48.9108911,20.8537758 48.9108911,16.4108911 C48.9108911,12.9889368 51.0474861,10.0660109 54.0594059,8.90338373 L54.0594059,0 L59.8514851,0 L59.8514851,8.90338373 Z" id="Oval-1-Copy" sketch:type="MSShapeGroup"></path>
        </g>
    </g>
</svg>